<?xml version="1.0" encoding="utf-8"?>
<!-- Generator: Adobe Illustrator 16.0.4, SVG Export Plug-In . SVG Version: 6.00 Build 0)  -->
<!DOCTYPE svg PUBLIC "-//W3C//DTD SVG 1.1//EN" "http://www.w3.org/Graphics/SVG/1.1/DTD/svg11.dtd">
<svg version="1.1" id="Layer_1" xmlns="http://www.w3.org/2000/svg" xmlns:xlink="http://www.w3.org/1999/xlink" x="0px" y="0px"
	 width="24px" height="24px" viewBox="0 0 24 24" enable-background="new 0 0 24 24" xml:space="preserve">
<path fill="#FFFFFF" d="M24.252,14.206v-4.41l-2.757-0.459c-0.153-0.608-0.459-1.216-0.92-2.128l1.686-2.282l-3.217-3.198
	l-2.297,1.674c-0.766-0.456-1.531-0.761-2.144-0.913l-0.307-2.74H9.856l-0.46,2.741C8.63,2.642,8.018,2.946,7.252,3.402L4.955,1.729
	L1.739,4.926l1.532,2.282c-0.459,0.76-0.613,1.369-0.918,2.128l-2.604,0.306v4.414l2.756,0.458c0.153,0.76,0.46,1.368,0.919,2.126
	l-1.531,2.286l3.216,3.197l2.297-1.531c0.612,0.305,1.378,0.604,2.144,0.909l0.46,2.741h4.594l0.459-2.741
	c0.767-0.152,1.379-0.458,2.146-0.912l2.297,1.672l3.216-3.186l-1.685-2.282c0.459-0.76,0.766-1.521,0.919-2.13L24.252,14.206
	L24.252,14.206z M12,16.491c-2.604,0-4.594-1.977-4.594-4.565S9.396,7.362,12,7.362c2.604,0,4.595,1.975,4.595,4.564
	S14.604,16.491,12,16.491z"/>
</svg>
